<svg height="795px" version="1.1" width="1887px" xmlns="http://www.w3.org/2000/svg"><defs><filter height="150%" id="shadow1" width="150%" x="0" y="0"><feOffset dx="3" dy="3" in="SourceGraphic" result="offOut"/><feGaussianBlur in="offOut" result="blurOut" stdDeviation="4"/><feBlend in="SourceGraphic" in2="blurOut" mode="normal"/></filter></defs><g filter="url(#shadow1)"><line stroke-width="1" style="stroke:rgb(60,179,113)" x1="195" x2="795" y1="40" y2="40"/><text font-family="arial" font-size="15px" style="fill:rgb(70,130,180)" x="10" y="55">Low autonomy from funding</text><line stroke-width="1" style="stroke:rgb(60,179,113)" x1="195" x2="195" y1="40" y2="61"/><text font-family="arial" font-size="15px" style="fill:rgb(60,179,113)" x="197.0" y="55.0">71.45</text><text font-family="arial" font-size="15px" style="fill:rgb(60,179,113)" x="237.0" y="55.0">71.45</text><text font-family="arial" font-size="15px" style="fill:rgb(60,179,113)" x="277.0" y="55.0">71.45</text><text font-family="arial" font-size="15px" style="fill:rgb(60,179,113)" x="317.0" y="55.0">42.87</text><text font-family="arial" font-size="15px" style="fill:rgb(60,179,113)" x="357.0" y="55.0">42.87</text><text font-family="arial" font-size="15px" style="fill:rgb(60,179,113)" x="397.0" y="55.0">42.87</text><text font-family="arial" font-size="15px" style="fill:rgb(60,179,113)" x="437.0" y="55.0">57.16</text><text font-family="arial" font-size="15px" style="fill:rgb(60,179,113)" x="477.0" y="55.0">14.29</text><text font-family="arial" font-size="15px" style="fill:rgb(60,179,113)" x="517.0" y="55.0">14.29</text><text font-family="arial" font-size="15px" style="fill:rgb(60,179,113)" x="557.0" y="55.0">14.29</text><text font-family="arial" font-size="15px" style="fill:rgb(60,179,113)" x="597.0" y="55.0">42.87</text><text font-family="arial" font-size="15px" style="fill:rgb(60,179,113)" x="637.0" y="55.0">42.87</text><text font-family="arial" font-size="15px" style="fill:rgb(60,179,113)" x="677.0" y="55.0">28.58</text><text font-family="arial" font-size="15px" style="fill:rgb(60,179,113)" x="717.0" y="55.0">42.87</text><text font-family="arial" font-size="15px" style="fill:rgb(60,179,113)" x="757.0" y="55.0">42.87</text><line stroke-width="1" style="stroke:rgb(60,179,113)" x1="795" x2="795" y1="40" y2="61"/><text font-family="arial" font-size="15px" style="fill:rgb(70,130,180)" x="801" y="55">High autonomy from funding</text><text font-family="arial" font-size="15px" style="fill:rgb(70,130,180)" x="26" y="76">Low developer motivation</text><line stroke-width="1" style="stroke:rgb(60,179,113)" x1="195" x2="195" y1="61" y2="82"/><text font-family="arial" font-size="15px" style="fill:rgb(60,179,113)" x="197.0" y="76.0">71.45</text><text font-family="arial" font-size="15px" style="fill:rgb(60,179,113)" x="237.0" y="76.0">42.87</text><text font-family="arial" font-size="15px" style="fill:rgb(60,179,113)" x="277.0" y="76.0">57.16</text><text font-family="arial" font-size="15px" style="fill:rgb(60,179,113)" x="317.0" y="76.0">28.58</text><text font-family="arial" font-size="15px" style="fill:rgb(60,179,113)" x="357.0" y="76.0">28.58</text><text font-family="arial" font-size="15px" style="fill:rgb(60,179,113)" x="397.0" y="76.0">28.58</text><text font-family="arial" font-size="15px" style="fill:rgb(60,179,113)" x="437.0" y="76.0">28.58</text><text font-family="arial" font-size="15px" style="fill:rgb(60,179,113)" x="477.0" y="76.0">14.29</text><text font-family="arial" font-size="15px" style="fill:rgb(60,179,113)" x="517.0" y="76.0">42.87</text><text font-family="arial" font-size="15px" style="fill:rgb(60,179,113)" x="557.0" y="76.0">71.45</text><text font-family="arial" font-size="15px" style="fill:rgb(60,179,113)" x="597.0" y="76.0">57.16</text><text font-family="arial" font-size="15px" style="fill:rgb(60,179,113)" x="637.0" y="76.0">57.16</text><text font-family="arial" font-size="15px" style="fill:rgb(60,179,113)" x="677.0" y="76.0">57.16</text><text font-family="arial" font-size="15px" style="fill:rgb(60,179,113)" x="717.0" y="76.0">42.87</text><text font-family="arial" font-size="15px" style="fill:rgb(60,179,113)" x="757.0" y="76.0">42.87</text><line stroke-width="1" style="stroke:rgb(60,179,113)" x1="795" x2="795" y1="61" y2="82"/><text font-family="arial" font-size="15px" style="fill:rgb(70,130,180)" x="801" y="76">high developer motivation</text><text font-family="arial" font-size="15px" style="fill:rgb(70,130,180)" x="26" y="97">Low requirement volatility</text><line stroke-width="1" style="stroke:rgb(60,179,113)" x1="195" x2="195" y1="82" y2="103"/><text font-family="arial" font-size="15px" style="fill:rgb(60,179,113)" x="197.0" y="97.0">42.87</text><text font-family="arial" font-size="15px" style="fill:rgb(60,179,113)" x="237.0" y="97.0">71.45</text><text font-family="arial" font-size="15px" style="fill:rgb(60,179,113)" x="277.0" y="97.0">71.45</text><text font-family="arial" font-size="15px" style="fill:rgb(60,179,113)" x="317.0" y="97.0">42.87</text><text font-family="arial" font-size="15px" style="fill:rgb(60,179,113)" x="357.0" y="97.0">42.87</text><text font-family="arial" font-size="15px" style="fill:rgb(60,179,113)" x="397.0" y="97.0">57.16</text><text font-family="arial" font-size="15px" style="fill:rgb(60,179,113)" x="437.0" y="97.0">42.87</text><text font-family="arial" font-size="15px" style="fill:rgb(60,179,113)" x="477.0" y="97.0">57.16</text><text font-family="arial" font-size="15px" style="fill:rgb(60,179,113)" x="517.0" y="97.0">71.45</text><text font-family="arial" font-size="15px" style="fill:rgb(60,179,113)" x="557.0" y="97.0">57.16</text><text font-family="arial" font-size="15px" style="fill:rgb(60,179,113)" x="597.0" y="97.0">42.87</text><text font-family="arial" font-size="15px" style="fill:rgb(60,179,113)" x="637.0" y="97.0">71.45</text><text font-family="arial" font-size="15px" style="fill:rgb(60,179,113)" x="677.0" y="97.0">71.45</text><text font-family="arial" font-size="15px" style="fill:rgb(60,179,113)" x="717.0" y="97.0">71.45</text><text font-family="arial" font-size="15px" style="fill:rgb(60,179,113)" x="757.0" y="97.0">57.16</text><line stroke-width="1" style="stroke:rgb(60,179,113)" x1="795" x2="795" y1="82" y2="103"/><text font-family="arial" font-size="15px" style="fill:rgb(70,130,180)" x="801" y="97">high requirement volatility</text><text font-family="arial" font-size="15px" style="fill:rgb(70,130,180)" x="12" y="118">Dynamic team composition</text><line stroke-width="1" style="stroke:rgb(60,179,113)" x1="195" x2="195" y1="103" y2="124"/><text font-family="arial" font-size="15px" style="fill:rgb(60,179,113)" x="197.0" y="118.0">14.29</text><text font-family="arial" font-size="15px" style="fill:rgb(60,179,113)" x="237.0" y="118.0">28.58</text><text font-family="arial" font-size="15px" style="fill:rgb(60,179,113)" x="277.0" y="118.0">42.87</text><text font-family="arial" font-size="15px" style="fill:rgb(60,179,113)" x="317.0" y="118.0">42.87</text><text font-family="arial" font-size="15px" style="fill:rgb(60,179,113)" x="357.0" y="118.0">42.87</text><text font-family="arial" font-size="15px" style="fill:rgb(60,179,113)" x="397.0" y="118.0">42.87</text><text font-family="arial" font-size="15px" style="fill:rgb(60,179,113)" x="437.0" y="118.0">42.87</text><text font-family="arial" font-size="15px" style="fill:rgb(60,179,113)" x="477.0" y="118.0">42.87</text><text font-family="arial" font-size="15px" style="fill:rgb(60,179,113)" x="517.0" y="118.0">28.58</text><text font-family="arial" font-size="15px" style="fill:rgb(60,179,113)" x="557.0" y="118.0">42.87</text><text font-family="arial" font-size="15px" style="fill:rgb(60,179,113)" x="597.0" y="118.0">42.87</text><text font-family="arial" font-size="15px" style="fill:rgb(60,179,113)" x="637.0" y="118.0">42.87</text><text font-family="arial" font-size="15px" style="fill:rgb(60,179,113)" x="677.0" y="118.0">14.29</text><text font-family="arial" font-size="15px" style="fill:rgb(60,179,113)" x="717.0" y="118.0">42.87</text><text font-family="arial" font-size="15px" style="fill:rgb(60,179,113)" x="757.0" y="118.0">28.58</text><line stroke-width="1" style="stroke:rgb(60,179,113)" x1="795" x2="795" y1="103" y2="124"/><text font-family="arial" font-size="15px" style="fill:rgb(70,130,180)" x="801" y="118">Static team composition</text><text font-family="arial" font-size="15px" style="fill:rgb(70,130,180)" x="116" y="139">Low testing</text><line stroke-width="1" style="stroke:rgb(60,179,113)" x1="195" x2="195" y1="124" y2="145"/><text font-family="arial" font-size="15px" style="fill:rgb(60,179,113)" x="197.0" y="139.0">42.87</text><text font-family="arial" font-size="15px" style="fill:rgb(60,179,113)" x="237.0" y="139.0">42.87</text><text font-family="arial" font-size="15px" style="fill:rgb(60,179,113)" x="277.0" y="139.0">42.87</text><text font-family="arial" font-size="15px" style="fill:rgb(60,179,113)" x="317.0" y="139.0">14.29</text><text font-family="arial" font-size="15px" style="fill:rgb(60,179,113)" x="357.0" y="139.0">42.87</text><text font-family="arial" font-size="15px" style="fill:rgb(60,179,113)" x="397.0" y="139.0">28.58</text><text font-family="arial" font-size="15px" style="fill:rgb(60,179,113)" x="437.0" y="139.0">42.87</text><text font-family="arial" font-size="15px" style="fill:rgb(60,179,113)" x="477.0" y="139.0">42.87</text><text font-family="arial" font-size="15px" style="fill:rgb(60,179,113)" x="517.0" y="139.0">57.16</text><text font-family="arial" font-size="15px" style="fill:rgb(60,179,113)" x="557.0" y="139.0">42.87</text><text font-family="arial" font-size="15px" style="fill:rgb(60,179,113)" x="597.0" y="139.0">42.87</text><text font-family="arial" font-size="15px" style="fill:rgb(60,179,113)" x="637.0" y="139.0">42.87</text><text font-family="arial" font-size="15px" style="fill:rgb(60,179,113)" x="677.0" y="139.0">42.87</text><text font-family="arial" font-size="15px" style="fill:rgb(60,179,113)" x="717.0" y="139.0">42.87</text><text font-family="arial" font-size="15px" style="fill:rgb(60,179,113)" x="757.0" y="139.0">28.58</text><line stroke-width="1" style="stroke:rgb(60,179,113)" x1="795" x2="795" y1="124" y2="145"/><text font-family="arial" font-size="15px" style="fill:rgb(70,130,180)" x="801" y="139">high testing</text><text font-family="arial" font-size="15px" style="fill:rgb(70,130,180)" x="136" y="160">Creative</text><line stroke-width="1" style="stroke:rgb(60,179,113)" x1="195" x2="195" y1="145" y2="166"/><text font-family="arial" font-size="15px" style="fill:rgb(60,179,113)" x="197.0" y="160.0">28.58</text><text font-family="arial" font-size="15px" style="fill:rgb(60,179,113)" x="237.0" y="160.0">14.29</text><text font-family="arial" font-size="15px" style="fill:rgb(60,179,113)" x="277.0" y="160.0">14.29</text><text font-family="arial" font-size="15px" style="fill:rgb(60,179,113)" x="317.0" y="160.0">14.29</text><text font-family="arial" font-size="15px" style="fill:rgb(60,179,113)" x="357.0" y="160.0">42.87</text><text font-family="arial" font-size="15px" style="fill:rgb(60,179,113)" x="397.0" y="160.0">28.58</text><text font-family="arial" font-size="15px" style="fill:rgb(60,179,113)" x="437.0" y="160.0">28.58</text><text font-family="arial" font-size="15px" style="fill:rgb(60,179,113)" x="477.0" y="160.0">42.87</text><text font-family="arial" font-size="15px" style="fill:rgb(60,179,113)" x="517.0" y="160.0">57.16</text><text font-family="arial" font-size="15px" style="fill:rgb(60,179,113)" x="557.0" y="160.0">14.29</text><text font-family="arial" font-size="15px" style="fill:rgb(60,179,113)" x="597.0" y="160.0">28.58</text><text font-family="arial" font-size="15px" style="fill:rgb(60,179,113)" x="637.0" y="160.0">42.87</text><text font-family="arial" font-size="15px" style="fill:rgb(60,179,113)" x="677.0" y="160.0">14.29</text><text font-family="arial" font-size="15px" style="fill:rgb(60,179,113)" x="717.0" y="160.0">14.29</text><text font-family="arial" font-size="15px" style="fill:rgb(60,179,113)" x="757.0" y="160.0">14.29</text><line stroke-width="1" style="stroke:rgb(60,179,113)" x1="795" x2="795" y1="145" y2="166"/><text font-family="arial" font-size="15px" style="fill:rgb(70,130,180)" x="801" y="160">Constructive</text><text font-family="arial" font-size="15px" style="fill:rgb(70,130,180)" x="80" y="181">Low quality of life</text><line stroke-width="1" style="stroke:rgb(60,179,113)" x1="195" x2="195" y1="166" y2="187"/><text font-family="arial" font-size="15px" style="fill:rgb(60,179,113)" x="197.0" y="181.0">42.87</text><text font-family="arial" font-size="15px" style="fill:rgb(60,179,113)" x="237.0" y="181.0">57.16</text><text font-family="arial" font-size="15px" style="fill:rgb(60,179,113)" x="277.0" y="181.0">28.58</text><text font-family="arial" font-size="15px" style="fill:rgb(60,179,113)" x="317.0" y="181.0">42.87</text><text font-family="arial" font-size="15px" style="fill:rgb(60,179,113)" x="357.0" y="181.0">14.29</text><text font-family="arial" font-size="15px" style="fill:rgb(60,179,113)" x="397.0" y="181.0">28.58</text><text font-family="arial" font-size="15px" style="fill:rgb(60,179,113)" x="437.0" y="181.0">28.58</text><text font-family="arial" font-size="15px" style="fill:rgb(60,179,113)" x="477.0" y="181.0">14.29</text><text font-family="arial" font-size="15px" style="fill:rgb(60,179,113)" x="517.0" y="181.0">42.87</text><text font-family="arial" font-size="15px" style="fill:rgb(60,179,113)" x="557.0" y="181.0">14.29</text><text font-family="arial" font-size="15px" style="fill:rgb(60,179,113)" x="597.0" y="181.0">42.87</text><text font-family="arial" font-size="15px" style="fill:rgb(60,179,113)" x="637.0" y="181.0">42.87</text><text font-family="arial" font-size="15px" style="fill:rgb(60,179,113)" x="677.0" y="181.0">28.58</text><text font-family="arial" font-size="15px" style="fill:rgb(60,179,113)" x="717.0" y="181.0">42.87</text><text font-family="arial" font-size="15px" style="fill:rgb(60,179,113)" x="757.0" y="181.0">42.87</text><line stroke-width="1" style="stroke:rgb(60,179,113)" x1="795" x2="795" y1="166" y2="187"/><text font-family="arial" font-size="15px" style="fill:rgb(70,130,180)" x="801" y="181">High quality of life</text><line stroke-width="1" style="stroke:rgb(60,179,113)" x1="195" x2="795" y1="187" y2="187"/></g><g filter="url(#shadow1)"><line stroke-width="1" style="stroke:rgb(255,0,0)" x1="988" x2="1008" y1="48" y2="48"/><line stroke-width="1" style="stroke:rgb(255,0,0)" x1="970" x2="1008" y1="69" y2="69"/><line stroke-width="1" style="stroke:rgb(255,0,0)" x1="970" x2="1008" y1="90" y2="90"/><line stroke-width="1" style="stroke:rgb(255,0,0)" x1="963" x2="1008" y1="111" y2="111"/><line stroke-width="1" style="stroke:rgb(255,0,0)" x1="880" x2="1008" y1="132" y2="132"/><line stroke-width="1" style="stroke:rgb(255,0,0)" x1="888" x2="1008" y1="153" y2="153"/><line stroke-width="1" style="stroke:rgb(255,0,0)" x1="918" x2="1008" y1="174" y2="174"/><line stroke-width="1" style="stroke:rgb(255,0,0)" x1="1008" x2="1383" y1="30" y2="30"/><text font-family="arial" font-size="15px" style="fill:rgb(255,0,0)" x="996" y="23">100</text><line stroke-width="1" style="stroke:rgb(255,0,0)" x1="1008" x2="1008" y1="30" y2="35"/><text font-family="arial" font-size="15px" style="fill:rgb(255,0,0)" x="1125" y="23">90</text><line stroke-width="1" style="stroke:rgb(255,0,0)" x1="1133" x2="1133" y1="30" y2="35"/><text font-family="arial" font-size="15px" style="fill:rgb(255,0,0)" x="1250" y="23">80</text><line stroke-width="1" style="stroke:rgb(255,0,0)" x1="1258" x2="1258" y1="30" y2="35"/><text font-family="arial" font-size="15px" style="fill:rgb(255,0,0)" x="1375" y="23">70</text><line stroke-width="1" style="stroke:rgb(255,0,0)" x1="1383" x2="1383" y1="30" y2="35"/><line stroke-width="1" style="stroke:rgb(255,0,0)" x1="1008" x2="1161" y1="111" y2="121"/><line stroke-width="1" style="stroke:rgb(255,0,0)" x1="1008" x2="1161" y1="132" y2="121"/><line stroke-width="1" style="stroke:rgb(255,0,0)" x1="1008" x2="1192" y1="153" y2="147"/><line stroke-width="1" style="stroke:rgb(255,0,0)" x1="1008" x2="1192" y1="174" y2="147"/><line stroke-width="1" style="stroke:rgb(255,0,0)" x1="1161" x2="1192" y1="121" y2="147"/><line stroke-width="1" style="stroke:rgb(255,0,0)" x1="1008" x2="1231" y1="48" y2="58"/><line stroke-width="1" style="stroke:rgb(255,0,0)" x1="1008" x2="1231" y1="69" y2="58"/><line stroke-width="1" style="stroke:rgb(255,0,0)" x1="1008" x2="1283" y1="90" y2="74"/><line stroke-width="1" style="stroke:rgb(255,0,0)" x1="1231" x2="1283" y1="58" y2="74"/><line stroke-width="1" style="stroke:rgb(255,0,0)" x1="1192" x2="1368" y1="147" y2="110"/><line stroke-width="1" style="stroke:rgb(255,0,0)" x1="1283" x2="1368" y1="74" y2="110"/></g><g filter="url(#shadow1)"><text font-family="arial" font-size="15px" style="fill:rgb(244,164,96)" x="800" y="251">Videogames as Interactive Experiential Products and Their Manner of Development</text><line stroke-width="1" style="stroke:rgb(188,143,143)" x1="775" x2="775" y1="188" y2="246"/><line stroke-width="1" style="stroke:rgb(188,143,143)" x1="775" x2="798" y1="246" y2="246"/><text font-family="arial" font-size="15px" style="fill:rgb(244,164,96)" x="800" y="272">Requirements engineering and the creative process in the video game industry</text><line stroke-width="1" style="stroke:rgb(188,143,143)" x1="735" x2="735" y1="188" y2="267"/><line stroke-width="1" style="stroke:rgb(188,143,143)" x1="735" x2="798" y1="267" y2="267"/><text font-family="arial" font-size="15px" style="fill:rgb(244,164,96)" x="800" y="293">Develop: Double Fine's Schafer On 'Amnesia Fortnights' And The Pitfalls Of AAA</text><line stroke-width="1" style="stroke:rgb(188,143,143)" x1="695" x2="695" y1="188" y2="288"/><line stroke-width="1" style="stroke:rgb(188,143,143)" x1="695" x2="798" y1="288" y2="288"/><text font-family="arial" font-size="15px" style="fill:rgb(244,164,96)" x="800" y="314">Serious games continuum: Between games for purpose and experiential environments for purpose</text><line stroke-width="1" style="stroke:rgb(188,143,143)" x1="655" x2="655" y1="188" y2="309"/><line stroke-width="1" style="stroke:rgb(188,143,143)" x1="655" x2="798" y1="309" y2="309"/><text font-family="arial" font-size="15px" style="fill:rgb(244,164,96)" x="800" y="335">Is Agility out there? Agile Practices in Game Development</text><line stroke-width="1" style="stroke:rgb(188,143,143)" x1="615" x2="615" y1="188" y2="330"/><line stroke-width="1" style="stroke:rgb(188,143,143)" x1="615" x2="798" y1="330" y2="330"/><text font-family="arial" font-size="15px" style="fill:rgb(244,164,96)" x="800" y="356">Quality of Life in the Game Industry: Challenges and Best Practices</text><line stroke-width="1" style="stroke:rgb(188,143,143)" x1="575" x2="575" y1="188" y2="351"/><line stroke-width="1" style="stroke:rgb(188,143,143)" x1="575" x2="798" y1="351" y2="351"/><text font-family="arial" font-size="15px" style="fill:rgb(244,164,96)" x="800" y="377">Software Engineering Challenges in Game Development</text><line stroke-width="1" style="stroke:rgb(188,143,143)" x1="535" x2="535" y1="188" y2="372"/><line stroke-width="1" style="stroke:rgb(188,143,143)" x1="535" x2="798" y1="372" y2="372"/><text font-family="arial" font-size="15px" style="fill:rgb(244,164,96)" x="800" y="398">The Console Ship is Sinking and What this Means for Indies</text><line stroke-width="1" style="stroke:rgb(188,143,143)" x1="495" x2="495" y1="188" y2="393"/><line stroke-width="1" style="stroke:rgb(188,143,143)" x1="495" x2="798" y1="393" y2="393"/><text font-family="arial" font-size="15px" style="fill:rgb(244,164,96)" x="800" y="419">Can crowdsourcing revolutionise indie funding?</text><line stroke-width="1" style="stroke:rgb(188,143,143)" x1="455" x2="455" y1="188" y2="414"/><line stroke-width="1" style="stroke:rgb(188,143,143)" x1="455" x2="798" y1="414" y2="414"/><text font-family="arial" font-size="15px" style="fill:rgb(244,164,96)" x="800" y="440">Cowboys, Ankle Sprains, and Keepers of Quality: How Is Video Game Development Different from Software Development?</text><line stroke-width="1" style="stroke:rgb(188,143,143)" x1="415" x2="415" y1="188" y2="435"/><line stroke-width="1" style="stroke:rgb(188,143,143)" x1="415" x2="798" y1="435" y2="435"/><text font-family="arial" font-size="15px" style="fill:rgb(244,164,96)" x="800" y="461">Developers Claim 13 Weeks Of Crunch Per Year</text><line stroke-width="1" style="stroke:rgb(188,143,143)" x1="375" x2="375" y1="188" y2="456"/><line stroke-width="1" style="stroke:rgb(188,143,143)" x1="375" x2="798" y1="456" y2="456"/><text font-family="arial" font-size="15px" style="fill:rgb(244,164,96)" x="800" y="482">Game Development: Harder Than You Think</text><line stroke-width="1" style="stroke:rgb(188,143,143)" x1="335" x2="335" y1="188" y2="477"/><line stroke-width="1" style="stroke:rgb(188,143,143)" x1="335" x2="798" y1="477" y2="477"/><text font-family="arial" font-size="15px" style="fill:rgb(244,164,96)" x="800" y="503">Hello Games' Sean Murray</text><line stroke-width="1" style="stroke:rgb(188,143,143)" x1="295" x2="295" y1="188" y2="498"/><line stroke-width="1" style="stroke:rgb(188,143,143)" x1="295" x2="798" y1="498" y2="498"/><text font-family="arial" font-size="15px" style="fill:rgb(244,164,96)" x="800" y="524">David vs. GoliathVille: A Call to Arms for Indie Social Game Designers</text><line stroke-width="1" style="stroke:rgb(188,143,143)" x1="255" x2="255" y1="188" y2="519"/><line stroke-width="1" style="stroke:rgb(188,143,143)" x1="255" x2="798" y1="519" y2="519"/><text font-family="arial" font-size="15px" style="fill:rgb(244,164,96)" x="800" y="545">Get Organized at Work! A Look Inside the Game Design Process of Valve and Linden Lab</text><line stroke-width="1" style="stroke:rgb(188,143,143)" x1="215" x2="215" y1="188" y2="540"/><line stroke-width="1" style="stroke:rgb(188,143,143)" x1="215" x2="798" y1="540" y2="540"/><line stroke-width="1" style="stroke:rgb(255,0,0)" x1="1341" x2="1613" y1="246" y2="246"/><line stroke-width="1" style="stroke:rgb(255,0,0)" x1="1314" x2="1613" y1="267" y2="267"/><line stroke-width="1" style="stroke:rgb(255,0,0)" x1="1326" x2="1613" y1="288" y2="288"/><line stroke-width="1" style="stroke:rgb(255,0,0)" x1="1443" x2="1613" y1="309" y2="309"/><line stroke-width="1" style="stroke:rgb(255,0,0)" x1="1176" x2="1613" y1="330" y2="330"/><line stroke-width="1" style="stroke:rgb(255,0,0)" x1="1240" x2="1613" y1="351" y2="351"/><line stroke-width="1" style="stroke:rgb(255,0,0)" x1="1170" x2="1613" y1="372" y2="372"/><line stroke-width="1" style="stroke:rgb(255,0,0)" x1="1191" x2="1613" y1="393" y2="393"/><line stroke-width="1" style="stroke:rgb(255,0,0)" x1="1110" x2="1613" y1="414" y2="414"/><line stroke-width="1" style="stroke:rgb(255,0,0)" x1="1598" x2="1613" y1="435" y2="435"/><line stroke-width="1" style="stroke:rgb(255,0,0)" x1="1123" x2="1613" y1="456" y2="456"/><line stroke-width="1" style="stroke:rgb(255,0,0)" x1="1092" x2="1613" y1="477" y2="477"/><line stroke-width="1" style="stroke:rgb(255,0,0)" x1="979" x2="1613" y1="498" y2="498"/><line stroke-width="1" style="stroke:rgb(255,0,0)" x1="1255" x2="1613" y1="519" y2="519"/><line stroke-width="1" style="stroke:rgb(255,0,0)" x1="1384" x2="1613" y1="540" y2="540"/><line stroke-width="1" style="stroke:rgb(255,0,0)" x1="1613" x2="1858" y1="217" y2="217"/><text font-family="arial" font-size="15px" style="fill:rgb(255,0,0)" x="1601" y="210">100</text><line stroke-width="1" style="stroke:rgb(255,0,0)" x1="1613" x2="1613" y1="217" y2="222"/><text font-family="arial" font-size="15px" style="fill:rgb(255,0,0)" x="1850" y="210">90</text><line stroke-width="1" style="stroke:rgb(255,0,0)" x1="1858" x2="1858" y1="217" y2="222"/><line stroke-width="1" style="stroke:rgb(255,0,0)" x1="1613" x2="1670" y1="414" y2="435"/><line stroke-width="1" style="stroke:rgb(255,0,0)" x1="1613" x2="1670" y1="435" y2="435"/><line stroke-width="1" style="stroke:rgb(255,0,0)" x1="1613" x2="1670" y1="456" y2="435"/><line stroke-width="1" style="stroke:rgb(255,0,0)" x1="1613" x2="1670" y1="246" y2="256"/><line stroke-width="1" style="stroke:rgb(255,0,0)" x1="1613" x2="1670" y1="267" y2="256"/><line stroke-width="1" style="stroke:rgb(255,0,0)" x1="1613" x2="1687" y1="309" y2="319"/><line stroke-width="1" style="stroke:rgb(255,0,0)" x1="1613" x2="1687" y1="330" y2="319"/><line stroke-width="1" style="stroke:rgb(255,0,0)" x1="1613" x2="1694" y1="498" y2="508"/><line stroke-width="1" style="stroke:rgb(255,0,0)" x1="1613" x2="1694" y1="519" y2="508"/><line stroke-width="1" style="stroke:rgb(255,0,0)" x1="1613" x2="1700" y1="288" y2="272"/><line stroke-width="1" style="stroke:rgb(255,0,0)" x1="1670" x2="1700" y1="256" y2="272"/><line stroke-width="1" style="stroke:rgb(255,0,0)" x1="1687" x2="1722" y1="319" y2="295"/><line stroke-width="1" style="stroke:rgb(255,0,0)" x1="1700" x2="1722" y1="272" y2="295"/><line stroke-width="1" style="stroke:rgb(255,0,0)" x1="1613" x2="1722" y1="540" y2="524"/><line stroke-width="1" style="stroke:rgb(255,0,0)" x1="1694" x2="1722" y1="508" y2="524"/><line stroke-width="1" style="stroke:rgb(255,0,0)" x1="1613" x2="1727" y1="372" y2="424"/><line stroke-width="1" style="stroke:rgb(255,0,0)" x1="1613" x2="1727" y1="393" y2="424"/><line stroke-width="1" style="stroke:rgb(255,0,0)" x1="1613" x2="1727" y1="477" y2="424"/><line stroke-width="1" style="stroke:rgb(255,0,0)" x1="1670" x2="1727" y1="435" y2="424"/><line stroke-width="1" style="stroke:rgb(255,0,0)" x1="1613" x2="1736" y1="351" y2="323"/><line stroke-width="1" style="stroke:rgb(255,0,0)" x1="1722" x2="1736" y1="295" y2="323"/><line stroke-width="1" style="stroke:rgb(255,0,0)" x1="1727" x2="1768" y1="424" y2="373"/><line stroke-width="1" style="stroke:rgb(255,0,0)" x1="1736" x2="1768" y1="323" y2="373"/><line stroke-width="1" style="stroke:rgb(255,0,0)" x1="1722" x2="1827" y1="524" y2="448"/><line stroke-width="1" style="stroke:rgb(255,0,0)" x1="1768" x2="1827" y1="373" y2="448"/></g></svg>