<svg width="2523px" height="372px" version="1.1" xmlns="http://www.w3.org/2000/svg"><defs><linearGradient id="tableHeaderGradient" x1="0%" x2="0%" y1="0%" y2="100%"><stop offset="0%" stop-color="rgb(141,179,235)" stop-opacity="1"/><stop offset="100%" stop-color="rgb(95,144,227)" stop-opacity="1"/></linearGradient><filter height="150%" id="shadow1" width="150%" x="0" y="0"><feOffset dx="3" dy="3" in="SourceGraphic" result="offOut"/><feGaussianBlur in="offOut" result="blurOut" stdDeviation="4"/><feBlend in="SourceGraphic" in2="blurOut" mode="normal"/></filter></defs><rect fill="url(#tableHeaderGradient)" height="46" width="1963" x="277" y="5"/><g id="polesGroup"><rect fill="rgb(141,179,235)" filter="url(#shadow1)" height="45" width="267" x="5" y="51"/><rect fill="rgb(141,179,235)" filter="url(#shadow1)" height="45" width="267" x="2246" y="51"/><text fill="rgb(255,255,255)" font-family="arial" font-size="30px" x="51" y="85">agile process</text><text fill="rgb(255,255,255)" font-family="arial" font-size="30px" x="2268" y="85">waterfall process</text><rect fill="rgb(141,179,235)" filter="url(#shadow1)" height="45" width="267" x="5" y="97"/><rect fill="rgb(141,179,235)" filter="url(#shadow1)" height="45" width="267" x="2246" y="97"/><text fill="rgb(255,255,255)" font-family="arial" font-size="30px" x="86" y="131">process</text><text fill="rgb(255,255,255)" font-family="arial" font-size="30px" x="2311" y="131">innovation</text><rect fill="rgb(141,179,235)" filter="url(#shadow1)" height="45" width="267" x="5" y="143"/><rect fill="rgb(141,179,235)" filter="url(#shadow1)" height="45" width="267" x="2246" y="143"/><text fill="rgb(255,255,255)" font-family="arial" font-size="30px" x="16" y="177">strong user impact</text><text fill="rgb(255,255,255)" font-family="arial" font-size="30px" x="2264" y="177">weak user impact</text><rect fill="rgb(141,179,235)" filter="url(#shadow1)" height="45" width="267" x="5" y="189"/><rect fill="rgb(141,179,235)" filter="url(#shadow1)" height="45" width="267" x="2246" y="189"/><text fill="rgb(255,255,255)" font-family="arial" font-size="30px" x="48" y="223">entertainment</text><text fill="rgb(255,255,255)" font-family="arial" font-size="30px" x="2279" y="223">solves problem</text><rect fill="rgb(141,179,235)" filter="url(#shadow1)" height="45" width="267" x="5" y="235"/><rect fill="rgb(141,179,235)" filter="url(#shadow1)" height="45" width="267" x="2246" y="235"/><text fill="rgb(255,255,255)" font-family="arial" font-size="30px" x="13" y="269">highdev interaction</text><text fill="rgb(255,255,255)" font-family="arial" font-size="30px" x="2261" y="269">lowdev interaction</text><rect fill="rgb(141,179,235)" filter="url(#shadow1)" height="45" width="267" x="5" y="281"/><rect fill="rgb(141,179,235)" filter="url(#shadow1)" height="45" width="267" x="2246" y="281"/><text fill="rgb(255,255,255)" font-family="arial" font-size="30px" x="87" y="315">creative</text><text fill="rgb(255,255,255)" font-family="arial" font-size="30px" x="2284" y="315">constructivism</text></g><g><rect fill="rgb(141,179,235)" filter="url(#shadow1)" height="33" width="177" x="5" y="333"/><text fill="rgb(255,255,255)" font-family="arial" font-size="20px" x="7" y="357">Total weight: 100.0</text></g><g id="svgGridTableGroup"><g id="svgGridTableBody"><rect fill="none" filter="url(#shadow1)" height="322" stroke="rgb(60,179,113)" stroke-width="1" width="1963" x="277" y="5"/><line stroke="rgb(60,179,113)" stroke-width="1" x1="410" x2="410" y1="5" y2="327"/><line stroke="rgb(60,179,113)" stroke-width="1" x1="870" x2="870" y1="5" y2="327"/><line stroke="rgb(60,179,113)" stroke-width="1" x1="1222" x2="1222" y1="5" y2="327"/><line stroke="rgb(60,179,113)" stroke-width="1" x1="1545" x2="1545" y1="5" y2="327"/><line stroke="rgb(60,179,113)" stroke-width="1" x1="2142" x2="2142" y1="5" y2="327"/><line stroke="rgb(60,179,113)" stroke-width="1" x1="277" x2="2240" y1="51" y2="51"/><line stroke="rgb(60,179,113)" stroke-width="1" x1="277" x2="2240" y1="97" y2="97"/><line stroke="rgb(60,179,113)" stroke-width="1" x1="277" x2="2240" y1="143" y2="143"/><line stroke="rgb(60,179,113)" stroke-width="1" x1="277" x2="2240" y1="189" y2="189"/><line stroke="rgb(60,179,113)" stroke-width="1" x1="277" x2="2240" y1="235" y2="235"/><line stroke="rgb(60,179,113)" stroke-width="1" x1="277" x2="2240" y1="281" y2="281"/></g><g id="svgGridTableCellText"><text fill="rgb(255,255,255)" font-family="arial" font-size="30px" x="282" y="40">Cowboys</text><text fill="rgb(255,255,255)" font-family="arial" font-size="30px" x="415" y="40">Hopefully Everything is Innovation</text><text fill="rgb(255,255,255)" font-family="arial" font-size="30px" x="875" y="40">Serious Games Continum</text><text fill="rgb(255,255,255)" font-family="arial" font-size="30px" x="1227" y="40">Get Organized at Work!</text><text fill="rgb(255,255,255)" font-family="arial" font-size="30px" x="1550" y="40">Idea Creation, Constructivism, and Evolution</text><text fill="rgb(255,255,255)" font-family="arial" font-size="30px" x="2147" y="40">weight</text><text fill="rgb(60,179,113)" font-family="arial" font-size="30px" x="322" y="86">1.0</text><text fill="rgb(60,179,113)" font-family="arial" font-size="30px" x="618" y="86">3.0</text><text fill="rgb(60,179,113)" font-family="arial" font-size="30px" x="1024" y="86">3.0</text><text fill="rgb(60,179,113)" font-family="arial" font-size="30px" x="1362" y="86">1.0</text><text fill="rgb(60,179,113)" font-family="arial" font-size="30px" x="1822" y="86">4.0</text><text fill="rgb(60,179,113)" font-family="arial" font-size="30px" x="2152" y="86">16.67</text><text fill="rgb(60,179,113)" font-family="arial" font-size="30px" x="322" y="132">5.0</text><text fill="rgb(60,179,113)" font-family="arial" font-size="30px" x="618" y="132">5.0</text><text fill="rgb(60,179,113)" font-family="arial" font-size="30px" x="1024" y="132">3.0</text><text fill="rgb(60,179,113)" font-family="arial" font-size="30px" x="1362" y="132">1.0</text><text fill="rgb(60,179,113)" font-family="arial" font-size="30px" x="1822" y="132">4.0</text><text fill="rgb(60,179,113)" font-family="arial" font-size="30px" x="2152" y="132">16.65</text><text fill="rgb(60,179,113)" font-family="arial" font-size="30px" x="322" y="178">3.0</text><text fill="rgb(60,179,113)" font-family="arial" font-size="30px" x="618" y="178">3.0</text><text fill="rgb(60,179,113)" font-family="arial" font-size="30px" x="1024" y="178">3.0</text><text fill="rgb(60,179,113)" font-family="arial" font-size="30px" x="1362" y="178">3.0</text><text fill="rgb(60,179,113)" font-family="arial" font-size="30px" x="1822" y="178">3.0</text><text fill="rgb(60,179,113)" font-family="arial" font-size="30px" x="2152" y="178">16.67</text><text fill="rgb(60,179,113)" font-family="arial" font-size="30px" x="322" y="224">3.0</text><text fill="rgb(60,179,113)" font-family="arial" font-size="30px" x="618" y="224">3.0</text><text fill="rgb(60,179,113)" font-family="arial" font-size="30px" x="1024" y="224">3.0</text><text fill="rgb(60,179,113)" font-family="arial" font-size="30px" x="1362" y="224">4.0</text><text fill="rgb(60,179,113)" font-family="arial" font-size="30px" x="1822" y="224">3.0</text><text fill="rgb(60,179,113)" font-family="arial" font-size="30px" x="2152" y="224">16.67</text><text fill="rgb(60,179,113)" font-family="arial" font-size="30px" x="322" y="270">3.0</text><text fill="rgb(60,179,113)" font-family="arial" font-size="30px" x="618" y="270">1.0</text><text fill="rgb(60,179,113)" font-family="arial" font-size="30px" x="1024" y="270">3.0</text><text fill="rgb(60,179,113)" font-family="arial" font-size="30px" x="1362" y="270">2.0</text><text fill="rgb(60,179,113)" font-family="arial" font-size="30px" x="1822" y="270">2.0</text><text fill="rgb(60,179,113)" font-family="arial" font-size="30px" x="2152" y="270">16.67</text><text fill="rgb(60,179,113)" font-family="arial" font-size="30px" x="322" y="316">3.0</text><text fill="rgb(60,179,113)" font-family="arial" font-size="30px" x="618" y="316">1.0</text><text fill="rgb(60,179,113)" font-family="arial" font-size="30px" x="1024" y="316">3.0</text><text fill="rgb(60,179,113)" font-family="arial" font-size="30px" x="1362" y="316">2.0</text><text fill="rgb(60,179,113)" font-family="arial" font-size="30px" x="1822" y="316">1.0</text><text fill="rgb(60,179,113)" font-family="arial" font-size="30px" x="2152" y="316">16.67</text></g></g></svg>